<mxfile host="app.diagrams.net" agent="Mozilla/5.0 (Windows NT 10.0; Win64; x64) AppleWebKit/537.36 (KHTML, like Gecko) Chrome/126.0.0.0 Safari/537.36 OPR/112.0.0.0" version="24.7.12">
  <diagram id="C5RBs43oDa-KdzZeNtuy" name="Page-1">
    <mxGraphModel dx="1836" dy="539" grid="1" gridSize="10" guides="1" tooltips="1" connect="1" arrows="1" fold="1" page="1" pageScale="1" pageWidth="827" pageHeight="1169" math="0" shadow="0">
      <root>
        <mxCell id="WIyWlLk6GJQsqaUBKTNV-0" />
        <mxCell id="WIyWlLk6GJQsqaUBKTNV-1" parent="WIyWlLk6GJQsqaUBKTNV-0" />
        <mxCell id="3LsAdrbxMUr_38dIZ2-f-0" value="SamplesDuck" style="shape=module;align=left;spacingLeft=20;align=center;verticalAlign=top;whiteSpace=wrap;html=1;" parent="WIyWlLk6GJQsqaUBKTNV-1" vertex="1">
          <mxGeometry x="40" y="207" width="370" height="330" as="geometry" />
        </mxCell>
        <mxCell id="QlOkIQeldyx6gdsehzbM-0" value="main" style="shape=module;align=left;spacingLeft=20;align=center;verticalAlign=top;whiteSpace=wrap;html=1;" parent="WIyWlLk6GJQsqaUBKTNV-1" vertex="1">
          <mxGeometry x="40" y="40" width="240" height="80" as="geometry" />
        </mxCell>
        <mxCell id="QlOkIQeldyx6gdsehzbM-1" value="App" style="html=1;whiteSpace=wrap;" parent="WIyWlLk6GJQsqaUBKTNV-1" vertex="1">
          <mxGeometry x="105" y="80" width="110" height="20" as="geometry" />
        </mxCell>
        <mxCell id="QlOkIQeldyx6gdsehzbM-2" value="DuckHandler" style="shape=module;align=left;spacingLeft=20;align=center;verticalAlign=top;whiteSpace=wrap;html=1;" parent="WIyWlLk6GJQsqaUBKTNV-1" vertex="1">
          <mxGeometry x="410" y="46" width="250" height="120" as="geometry" />
        </mxCell>
        <mxCell id="QlOkIQeldyx6gdsehzbM-4" value="&lt;span style=&quot;text-align: left;&quot;&gt;HandleDuck(duck : Duck) : void&lt;/span&gt;" style="swimlane;fontStyle=0;childLayout=stackLayout;horizontal=1;startSize=50;fillColor=none;horizontalStack=0;resizeParent=1;resizeParentMax=0;resizeLast=0;collapsible=1;marginBottom=0;whiteSpace=wrap;html=1;" parent="WIyWlLk6GJQsqaUBKTNV-1" vertex="1">
          <mxGeometry x="455" y="90" width="175" height="40" as="geometry" />
        </mxCell>
        <mxCell id="QlOkIQeldyx6gdsehzbM-8" style="edgeStyle=orthogonalEdgeStyle;rounded=0;orthogonalLoop=1;jettySize=auto;html=1;entryX=0;entryY=0.25;entryDx=0;entryDy=0;startArrow=diamondThin;startFill=1;strokeWidth=1;startSize=13;" parent="WIyWlLk6GJQsqaUBKTNV-1" source="QlOkIQeldyx6gdsehzbM-1" target="QlOkIQeldyx6gdsehzbM-4" edge="1">
          <mxGeometry relative="1" as="geometry" />
        </mxCell>
        <mxCell id="QlOkIQeldyx6gdsehzbM-9" value="Duck" style="shape=module;align=left;spacingLeft=20;align=center;verticalAlign=top;whiteSpace=wrap;html=1;" parent="WIyWlLk6GJQsqaUBKTNV-1" vertex="1">
          <mxGeometry x="420" y="210" width="370" height="350" as="geometry" />
        </mxCell>
        <mxCell id="QlOkIQeldyx6gdsehzbM-10" value="Duck" style="swimlane;fontStyle=1;align=center;verticalAlign=top;childLayout=stackLayout;horizontal=1;startSize=26;horizontalStack=0;resizeParent=1;resizeParentMax=0;resizeLast=0;collapsible=1;marginBottom=0;whiteSpace=wrap;html=1;" parent="WIyWlLk6GJQsqaUBKTNV-1" vertex="1">
          <mxGeometry x="455" y="240" width="320" height="310" as="geometry" />
        </mxCell>
        <mxCell id="QlOkIQeldyx6gdsehzbM-11" value="- m_quack&lt;span style=&quot;text-align: center;&quot;&gt;Behavior : IQuackBehavior&lt;/span&gt;" style="text;strokeColor=none;fillColor=none;align=left;verticalAlign=top;spacingLeft=4;spacingRight=4;overflow=hidden;rotatable=0;points=[[0,0.5],[1,0.5]];portConstraint=eastwest;whiteSpace=wrap;html=1;" parent="QlOkIQeldyx6gdsehzbM-10" vertex="1">
          <mxGeometry y="26" width="320" height="26" as="geometry" />
        </mxCell>
        <mxCell id="QlOkIQeldyx6gdsehzbM-21" value="- m_fly&lt;span style=&quot;text-align: center;&quot;&gt;Behavior : IFlyBehavior&lt;/span&gt;" style="text;strokeColor=none;fillColor=none;align=left;verticalAlign=top;spacingLeft=4;spacingRight=4;overflow=hidden;rotatable=0;points=[[0,0.5],[1,0.5]];portConstraint=eastwest;whiteSpace=wrap;html=1;" parent="QlOkIQeldyx6gdsehzbM-10" vertex="1">
          <mxGeometry y="52" width="320" height="26" as="geometry" />
        </mxCell>
        <mxCell id="QlOkIQeldyx6gdsehzbM-22" value="- m_dance&lt;span style=&quot;text-align: center;&quot;&gt;Behavior : IDanceBehavior&lt;/span&gt;" style="text;strokeColor=none;fillColor=none;align=left;verticalAlign=top;spacingLeft=4;spacingRight=4;overflow=hidden;rotatable=0;points=[[0,0.5],[1,0.5]];portConstraint=eastwest;whiteSpace=wrap;html=1;" parent="QlOkIQeldyx6gdsehzbM-10" vertex="1">
          <mxGeometry y="78" width="320" height="26" as="geometry" />
        </mxCell>
        <mxCell id="QlOkIQeldyx6gdsehzbM-12" value="" style="line;strokeWidth=1;fillColor=none;align=left;verticalAlign=middle;spacingTop=-1;spacingLeft=3;spacingRight=3;rotatable=0;labelPosition=right;points=[];portConstraint=eastwest;strokeColor=inherit;" parent="QlOkIQeldyx6gdsehzbM-10" vertex="1">
          <mxGeometry y="104" width="320" height="8" as="geometry" />
        </mxCell>
        <mxCell id="QlOkIQeldyx6gdsehzbM-13" value="+ Duck(quackBehavior : unique_ptr&amp;lt;IQuackBehavior&amp;gt;,&lt;div&gt;&lt;span style=&quot;white-space: pre;&quot;&gt;&#x9;&lt;/span&gt;flyBehavior: unique_ptr&amp;lt;IFlyBehavior&amp;gt;,&lt;br&gt;&lt;/div&gt;&lt;div&gt;&lt;span style=&quot;white-space: pre;&quot;&gt;&#x9;&lt;/span&gt;danceBehavior: unique_ptr&amp;lt;DanceBehavior&amp;gt;&lt;br&gt;&lt;/div&gt;&lt;div&gt;) : constructor&lt;/div&gt;" style="text;strokeColor=none;fillColor=none;align=left;verticalAlign=top;spacingLeft=4;spacingRight=4;overflow=hidden;rotatable=0;points=[[0,0.5],[1,0.5]];portConstraint=eastwest;whiteSpace=wrap;html=1;" parent="QlOkIQeldyx6gdsehzbM-10" vertex="1">
          <mxGeometry y="112" width="320" height="68" as="geometry" />
        </mxCell>
        <mxCell id="QlOkIQeldyx6gdsehzbM-37" value="+ Swim() : void" style="text;strokeColor=none;fillColor=none;align=left;verticalAlign=top;spacingLeft=4;spacingRight=4;overflow=hidden;rotatable=0;points=[[0,0.5],[1,0.5]];portConstraint=eastwest;whiteSpace=wrap;html=1;" parent="QlOkIQeldyx6gdsehzbM-10" vertex="1">
          <mxGeometry y="180" width="320" height="26" as="geometry" />
        </mxCell>
        <mxCell id="QlOkIQeldyx6gdsehzbM-38" value="+ Quack() : void" style="text;strokeColor=none;fillColor=none;align=left;verticalAlign=top;spacingLeft=4;spacingRight=4;overflow=hidden;rotatable=0;points=[[0,0.5],[1,0.5]];portConstraint=eastwest;whiteSpace=wrap;html=1;" parent="QlOkIQeldyx6gdsehzbM-10" vertex="1">
          <mxGeometry y="206" width="320" height="26" as="geometry" />
        </mxCell>
        <mxCell id="QlOkIQeldyx6gdsehzbM-39" value="+ Fly() : void" style="text;strokeColor=none;fillColor=none;align=left;verticalAlign=top;spacingLeft=4;spacingRight=4;overflow=hidden;rotatable=0;points=[[0,0.5],[1,0.5]];portConstraint=eastwest;whiteSpace=wrap;html=1;" parent="QlOkIQeldyx6gdsehzbM-10" vertex="1">
          <mxGeometry y="232" width="320" height="26" as="geometry" />
        </mxCell>
        <mxCell id="QlOkIQeldyx6gdsehzbM-40" value="+ Dance() : void" style="text;strokeColor=none;fillColor=none;align=left;verticalAlign=top;spacingLeft=4;spacingRight=4;overflow=hidden;rotatable=0;points=[[0,0.5],[1,0.5]];portConstraint=eastwest;whiteSpace=wrap;html=1;" parent="QlOkIQeldyx6gdsehzbM-10" vertex="1">
          <mxGeometry y="258" width="320" height="26" as="geometry" />
        </mxCell>
        <mxCell id="lgIc2JTGFsaPqbrekX56-0" value="+ Display() : void" style="text;strokeColor=none;fillColor=none;align=left;verticalAlign=top;spacingLeft=4;spacingRight=4;overflow=hidden;rotatable=0;points=[[0,0.5],[1,0.5]];portConstraint=eastwest;whiteSpace=wrap;html=1;" parent="QlOkIQeldyx6gdsehzbM-10" vertex="1">
          <mxGeometry y="284" width="320" height="26" as="geometry" />
        </mxCell>
        <mxCell id="QlOkIQeldyx6gdsehzbM-15" value="&lt;div&gt;&lt;i&gt;&amp;lt;&amp;lt;interface&amp;gt;&lt;/i&gt;&lt;/div&gt;&lt;i&gt;IQuackBehavior&lt;/i&gt;" style="swimlane;fontStyle=1;align=center;verticalAlign=top;childLayout=stackLayout;horizontal=1;startSize=40;horizontalStack=0;resizeParent=1;resizeParentMax=0;resizeLast=0;collapsible=1;marginBottom=0;whiteSpace=wrap;html=1;" parent="WIyWlLk6GJQsqaUBKTNV-1" vertex="1">
          <mxGeometry x="60" y="840" width="160" height="66" as="geometry" />
        </mxCell>
        <mxCell id="QlOkIQeldyx6gdsehzbM-16" value="&lt;i&gt;+ Quack() : void&lt;/i&gt;" style="text;strokeColor=none;fillColor=none;align=left;verticalAlign=top;spacingLeft=4;spacingRight=4;overflow=hidden;rotatable=0;points=[[0,0.5],[1,0.5]];portConstraint=eastwest;whiteSpace=wrap;html=1;" parent="QlOkIQeldyx6gdsehzbM-15" vertex="1">
          <mxGeometry y="40" width="160" height="26" as="geometry" />
        </mxCell>
        <mxCell id="QlOkIQeldyx6gdsehzbM-17" value="&lt;div&gt;&lt;i&gt;&amp;lt;&amp;lt;interface&amp;gt;&amp;gt;&lt;/i&gt;&lt;/div&gt;&lt;i&gt;IFlyBehavior&lt;/i&gt;" style="swimlane;fontStyle=1;align=center;verticalAlign=top;childLayout=stackLayout;horizontal=1;startSize=40;horizontalStack=0;resizeParent=1;resizeParentMax=0;resizeLast=0;collapsible=1;marginBottom=0;whiteSpace=wrap;html=1;" parent="WIyWlLk6GJQsqaUBKTNV-1" vertex="1">
          <mxGeometry x="400" y="840" width="160" height="66" as="geometry" />
        </mxCell>
        <mxCell id="QlOkIQeldyx6gdsehzbM-18" value="&lt;i&gt;+ Fly() : void&lt;/i&gt;" style="text;strokeColor=none;fillColor=none;align=left;verticalAlign=top;spacingLeft=4;spacingRight=4;overflow=hidden;rotatable=0;points=[[0,0.5],[1,0.5]];portConstraint=eastwest;whiteSpace=wrap;html=1;" parent="QlOkIQeldyx6gdsehzbM-17" vertex="1">
          <mxGeometry y="40" width="160" height="26" as="geometry" />
        </mxCell>
        <mxCell id="QlOkIQeldyx6gdsehzbM-19" value="&lt;div&gt;&lt;i&gt;&amp;lt;&amp;lt;interface&amp;gt;&amp;gt;&lt;/i&gt;&lt;/div&gt;&lt;i&gt;IDance&lt;/i&gt;&lt;i&gt;Behavior&lt;/i&gt;" style="swimlane;fontStyle=1;align=center;verticalAlign=top;childLayout=stackLayout;horizontal=1;startSize=40;horizontalStack=0;resizeParent=1;resizeParentMax=0;resizeLast=0;collapsible=1;marginBottom=0;whiteSpace=wrap;html=1;" parent="WIyWlLk6GJQsqaUBKTNV-1" vertex="1">
          <mxGeometry x="730" y="840" width="160" height="66" as="geometry" />
        </mxCell>
        <mxCell id="QlOkIQeldyx6gdsehzbM-20" value="&lt;i&gt;+ Dance() : void&lt;/i&gt;" style="text;strokeColor=none;fillColor=none;align=left;verticalAlign=top;spacingLeft=4;spacingRight=4;overflow=hidden;rotatable=0;points=[[0,0.5],[1,0.5]];portConstraint=eastwest;whiteSpace=wrap;html=1;" parent="QlOkIQeldyx6gdsehzbM-19" vertex="1">
          <mxGeometry y="40" width="160" height="26" as="geometry" />
        </mxCell>
        <mxCell id="QlOkIQeldyx6gdsehzbM-23" style="edgeStyle=orthogonalEdgeStyle;rounded=0;orthogonalLoop=1;jettySize=auto;html=1;dashed=1;fontFamily=Helvetica;fontSize=13;endArrow=open;endFill=0;" parent="WIyWlLk6GJQsqaUBKTNV-1" source="QlOkIQeldyx6gdsehzbM-4" target="QlOkIQeldyx6gdsehzbM-10" edge="1">
          <mxGeometry relative="1" as="geometry">
            <Array as="points">
              <mxPoint x="538" y="180" />
              <mxPoint x="570" y="180" />
            </Array>
          </mxGeometry>
        </mxCell>
        <mxCell id="QlOkIQeldyx6gdsehzbM-61" style="edgeStyle=orthogonalEdgeStyle;rounded=0;orthogonalLoop=1;jettySize=auto;html=1;endArrow=block;endFill=0;" parent="WIyWlLk6GJQsqaUBKTNV-1" source="QlOkIQeldyx6gdsehzbM-46" target="QlOkIQeldyx6gdsehzbM-10" edge="1">
          <mxGeometry relative="1" as="geometry">
            <mxPoint x="160.02857142857135" y="300" as="sourcePoint" />
            <mxPoint x="455" y="320" as="targetPoint" />
            <Array as="points">
              <mxPoint x="160" y="310" />
            </Array>
          </mxGeometry>
        </mxCell>
        <mxCell id="QlOkIQeldyx6gdsehzbM-46" value="MallardDuck" style="html=1;whiteSpace=wrap;" parent="WIyWlLk6GJQsqaUBKTNV-1" vertex="1">
          <mxGeometry x="105" y="258" width="110" height="32" as="geometry" />
        </mxCell>
        <mxCell id="QlOkIQeldyx6gdsehzbM-47" value="RedheadDuck" style="html=1;whiteSpace=wrap;" parent="WIyWlLk6GJQsqaUBKTNV-1" vertex="1">
          <mxGeometry x="270" y="258" width="110" height="32" as="geometry" />
        </mxCell>
        <mxCell id="QlOkIQeldyx6gdsehzbM-48" value="RubberDuck" style="html=1;whiteSpace=wrap;" parent="WIyWlLk6GJQsqaUBKTNV-1" vertex="1">
          <mxGeometry x="105" y="356" width="110" height="32" as="geometry" />
        </mxCell>
        <mxCell id="QlOkIQeldyx6gdsehzbM-49" value="ModelDuck" style="html=1;whiteSpace=wrap;" parent="WIyWlLk6GJQsqaUBKTNV-1" vertex="1">
          <mxGeometry x="105" y="430" width="110" height="32" as="geometry" />
        </mxCell>
        <mxCell id="QlOkIQeldyx6gdsehzbM-50" value="DecoyDuck" style="html=1;whiteSpace=wrap;" parent="WIyWlLk6GJQsqaUBKTNV-1" vertex="1">
          <mxGeometry x="270" y="356" width="110" height="32" as="geometry" />
        </mxCell>
        <mxCell id="QlOkIQeldyx6gdsehzbM-56" style="edgeStyle=orthogonalEdgeStyle;rounded=0;orthogonalLoop=1;jettySize=auto;html=1;dashed=1;fontFamily=Helvetica;fontSize=13;endArrow=open;endFill=0;" parent="WIyWlLk6GJQsqaUBKTNV-1" source="QlOkIQeldyx6gdsehzbM-1" target="QlOkIQeldyx6gdsehzbM-46" edge="1">
          <mxGeometry relative="1" as="geometry">
            <mxPoint x="548" y="152" as="sourcePoint" />
            <mxPoint x="580" y="240" as="targetPoint" />
            <Array as="points">
              <mxPoint x="160" y="190" />
              <mxPoint x="80" y="190" />
              <mxPoint x="80" y="240" />
              <mxPoint x="160" y="240" />
            </Array>
          </mxGeometry>
        </mxCell>
        <mxCell id="QlOkIQeldyx6gdsehzbM-57" style="edgeStyle=orthogonalEdgeStyle;rounded=0;orthogonalLoop=1;jettySize=auto;html=1;dashed=1;fontFamily=Helvetica;fontSize=13;endArrow=open;endFill=0;" parent="WIyWlLk6GJQsqaUBKTNV-1" source="QlOkIQeldyx6gdsehzbM-1" target="QlOkIQeldyx6gdsehzbM-47" edge="1">
          <mxGeometry relative="1" as="geometry">
            <mxPoint x="182" y="110" as="sourcePoint" />
            <mxPoint x="170" y="268" as="targetPoint" />
            <Array as="points">
              <mxPoint x="160" y="190" />
              <mxPoint x="80" y="190" />
              <mxPoint x="80" y="240" />
              <mxPoint x="325" y="240" />
            </Array>
          </mxGeometry>
        </mxCell>
        <mxCell id="QlOkIQeldyx6gdsehzbM-58" style="edgeStyle=orthogonalEdgeStyle;rounded=0;orthogonalLoop=1;jettySize=auto;html=1;dashed=1;fontFamily=Helvetica;fontSize=13;endArrow=open;endFill=0;" parent="WIyWlLk6GJQsqaUBKTNV-1" target="QlOkIQeldyx6gdsehzbM-50" edge="1">
          <mxGeometry relative="1" as="geometry">
            <mxPoint x="159.97" y="100" as="sourcePoint" />
            <mxPoint x="324.97" y="258" as="targetPoint" />
            <Array as="points">
              <mxPoint x="160" y="190" />
              <mxPoint x="80" y="190" />
              <mxPoint x="80" y="330" />
              <mxPoint x="325" y="330" />
            </Array>
          </mxGeometry>
        </mxCell>
        <mxCell id="QlOkIQeldyx6gdsehzbM-59" style="edgeStyle=orthogonalEdgeStyle;rounded=0;orthogonalLoop=1;jettySize=auto;html=1;dashed=1;fontFamily=Helvetica;fontSize=13;endArrow=open;endFill=0;" parent="WIyWlLk6GJQsqaUBKTNV-1" target="QlOkIQeldyx6gdsehzbM-48" edge="1">
          <mxGeometry relative="1" as="geometry">
            <mxPoint x="159.94" y="100" as="sourcePoint" />
            <mxPoint x="324.97" y="370" as="targetPoint" />
            <Array as="points">
              <mxPoint x="160" y="190" />
              <mxPoint x="80" y="190" />
              <mxPoint x="80" y="330" />
              <mxPoint x="160" y="330" />
            </Array>
          </mxGeometry>
        </mxCell>
        <mxCell id="QlOkIQeldyx6gdsehzbM-60" style="edgeStyle=orthogonalEdgeStyle;rounded=0;orthogonalLoop=1;jettySize=auto;html=1;dashed=1;fontFamily=Helvetica;fontSize=13;endArrow=open;endFill=0;" parent="WIyWlLk6GJQsqaUBKTNV-1" target="QlOkIQeldyx6gdsehzbM-49" edge="1">
          <mxGeometry relative="1" as="geometry">
            <mxPoint x="159.94" y="100" as="sourcePoint" />
            <mxPoint x="324.97" y="370" as="targetPoint" />
            <Array as="points">
              <mxPoint x="160" y="190" />
              <mxPoint x="80" y="190" />
              <mxPoint x="80" y="446" />
            </Array>
          </mxGeometry>
        </mxCell>
        <mxCell id="QlOkIQeldyx6gdsehzbM-63" style="edgeStyle=orthogonalEdgeStyle;rounded=0;orthogonalLoop=1;jettySize=auto;html=1;endArrow=block;endFill=0;" parent="WIyWlLk6GJQsqaUBKTNV-1" source="QlOkIQeldyx6gdsehzbM-47" target="QlOkIQeldyx6gdsehzbM-10" edge="1">
          <mxGeometry relative="1" as="geometry">
            <mxPoint x="160" y="290" as="sourcePoint" />
            <mxPoint x="455" y="420" as="targetPoint" />
            <Array as="points">
              <mxPoint x="325" y="310" />
            </Array>
          </mxGeometry>
        </mxCell>
        <mxCell id="QlOkIQeldyx6gdsehzbM-64" style="edgeStyle=orthogonalEdgeStyle;rounded=0;orthogonalLoop=1;jettySize=auto;html=1;endArrow=block;endFill=0;" parent="WIyWlLk6GJQsqaUBKTNV-1" source="QlOkIQeldyx6gdsehzbM-48" target="QlOkIQeldyx6gdsehzbM-10" edge="1">
          <mxGeometry relative="1" as="geometry">
            <mxPoint x="325" y="290" as="sourcePoint" />
            <mxPoint x="455" y="420" as="targetPoint" />
            <Array as="points">
              <mxPoint x="160" y="410" />
            </Array>
          </mxGeometry>
        </mxCell>
        <mxCell id="QlOkIQeldyx6gdsehzbM-65" style="edgeStyle=orthogonalEdgeStyle;rounded=0;orthogonalLoop=1;jettySize=auto;html=1;endArrow=block;endFill=0;" parent="WIyWlLk6GJQsqaUBKTNV-1" source="QlOkIQeldyx6gdsehzbM-50" target="QlOkIQeldyx6gdsehzbM-10" edge="1">
          <mxGeometry relative="1" as="geometry">
            <mxPoint x="160" y="402" as="sourcePoint" />
            <mxPoint x="455" y="420" as="targetPoint" />
            <Array as="points">
              <mxPoint x="325" y="410" />
            </Array>
          </mxGeometry>
        </mxCell>
        <mxCell id="QlOkIQeldyx6gdsehzbM-66" style="edgeStyle=orthogonalEdgeStyle;rounded=0;orthogonalLoop=1;jettySize=auto;html=1;endArrow=block;endFill=0;" parent="WIyWlLk6GJQsqaUBKTNV-1" source="QlOkIQeldyx6gdsehzbM-49" target="QlOkIQeldyx6gdsehzbM-10" edge="1">
          <mxGeometry relative="1" as="geometry">
            <mxPoint x="170" y="412" as="sourcePoint" />
            <mxPoint x="465" y="430" as="targetPoint" />
            <Array as="points">
              <mxPoint x="330" y="446" />
              <mxPoint x="330" y="446" />
            </Array>
          </mxGeometry>
        </mxCell>
        <mxCell id="QlOkIQeldyx6gdsehzbM-67" value="QuaсkBehavior" style="shape=module;align=left;spacingLeft=20;align=center;verticalAlign=top;whiteSpace=wrap;html=1;" parent="WIyWlLk6GJQsqaUBKTNV-1" vertex="1">
          <mxGeometry x="30" y="940" width="200" height="220" as="geometry" />
        </mxCell>
        <mxCell id="QlOkIQeldyx6gdsehzbM-68" value="Quaсk" style="html=1;whiteSpace=wrap;" parent="WIyWlLk6GJQsqaUBKTNV-1" vertex="1">
          <mxGeometry x="67.5" y="990" width="125" height="32" as="geometry" />
        </mxCell>
        <mxCell id="QlOkIQeldyx6gdsehzbM-69" value="Squeak" style="html=1;whiteSpace=wrap;" parent="WIyWlLk6GJQsqaUBKTNV-1" vertex="1">
          <mxGeometry x="67.5" y="1040" width="125" height="32" as="geometry" />
        </mxCell>
        <mxCell id="QlOkIQeldyx6gdsehzbM-70" value="MuteQuack" style="html=1;whiteSpace=wrap;" parent="WIyWlLk6GJQsqaUBKTNV-1" vertex="1">
          <mxGeometry x="67.5" y="1090" width="125" height="32" as="geometry" />
        </mxCell>
        <mxCell id="QlOkIQeldyx6gdsehzbM-71" value="FlyBehavior" style="shape=module;align=left;spacingLeft=20;align=center;verticalAlign=top;whiteSpace=wrap;html=1;" parent="WIyWlLk6GJQsqaUBKTNV-1" vertex="1">
          <mxGeometry x="380" y="930" width="200" height="160" as="geometry" />
        </mxCell>
        <mxCell id="QlOkIQeldyx6gdsehzbM-72" value="FlyNoWay" style="html=1;whiteSpace=wrap;" parent="WIyWlLk6GJQsqaUBKTNV-1" vertex="1">
          <mxGeometry x="415" y="980" width="125" height="32" as="geometry" />
        </mxCell>
        <mxCell id="QlOkIQeldyx6gdsehzbM-73" value="FlyWithWings" style="html=1;whiteSpace=wrap;" parent="WIyWlLk6GJQsqaUBKTNV-1" vertex="1">
          <mxGeometry x="415" y="1030" width="125" height="32" as="geometry" />
        </mxCell>
        <mxCell id="QlOkIQeldyx6gdsehzbM-75" value="DanceBehavior" style="shape=module;align=left;spacingLeft=20;align=center;verticalAlign=top;whiteSpace=wrap;html=1;" parent="WIyWlLk6GJQsqaUBKTNV-1" vertex="1">
          <mxGeometry x="710" y="940" width="200" height="220" as="geometry" />
        </mxCell>
        <mxCell id="QlOkIQeldyx6gdsehzbM-76" value="Waltz" style="html=1;whiteSpace=wrap;" parent="WIyWlLk6GJQsqaUBKTNV-1" vertex="1">
          <mxGeometry x="745" y="990" width="125" height="32" as="geometry" />
        </mxCell>
        <mxCell id="QlOkIQeldyx6gdsehzbM-77" value="Minuet" style="html=1;whiteSpace=wrap;" parent="WIyWlLk6GJQsqaUBKTNV-1" vertex="1">
          <mxGeometry x="745" y="1040" width="125" height="32" as="geometry" />
        </mxCell>
        <mxCell id="QlOkIQeldyx6gdsehzbM-78" value="NoDance" style="html=1;whiteSpace=wrap;" parent="WIyWlLk6GJQsqaUBKTNV-1" vertex="1">
          <mxGeometry x="745" y="1090" width="125" height="32" as="geometry" />
        </mxCell>
        <mxCell id="QlOkIQeldyx6gdsehzbM-79" style="edgeStyle=orthogonalEdgeStyle;rounded=0;orthogonalLoop=1;jettySize=auto;html=1;endArrow=block;endFill=0;dashed=1;" parent="WIyWlLk6GJQsqaUBKTNV-1" source="QlOkIQeldyx6gdsehzbM-68" target="QlOkIQeldyx6gdsehzbM-15" edge="1">
          <mxGeometry relative="1" as="geometry">
            <mxPoint x="199.96" y="829" as="sourcePoint" />
            <mxPoint x="130.00347826086963" y="809" as="targetPoint" />
            <Array as="points">
              <mxPoint x="250" y="1006" />
              <mxPoint x="250" y="870" />
            </Array>
          </mxGeometry>
        </mxCell>
        <mxCell id="QlOkIQeldyx6gdsehzbM-80" style="edgeStyle=orthogonalEdgeStyle;rounded=0;orthogonalLoop=1;jettySize=auto;html=1;endArrow=block;endFill=0;dashed=1;" parent="WIyWlLk6GJQsqaUBKTNV-1" source="QlOkIQeldyx6gdsehzbM-69" target="QlOkIQeldyx6gdsehzbM-15" edge="1">
          <mxGeometry relative="1" as="geometry">
            <mxPoint x="192.5" y="1033" as="sourcePoint" />
            <mxPoint x="219.5" y="900" as="targetPoint" />
            <Array as="points">
              <mxPoint x="250" y="1060" />
              <mxPoint x="250" y="870" />
            </Array>
          </mxGeometry>
        </mxCell>
        <mxCell id="QlOkIQeldyx6gdsehzbM-81" style="edgeStyle=orthogonalEdgeStyle;rounded=0;orthogonalLoop=1;jettySize=auto;html=1;endArrow=block;endFill=0;dashed=1;" parent="WIyWlLk6GJQsqaUBKTNV-1" source="QlOkIQeldyx6gdsehzbM-70" target="QlOkIQeldyx6gdsehzbM-15" edge="1">
          <mxGeometry relative="1" as="geometry">
            <mxPoint x="192.5" y="1060" as="sourcePoint" />
            <mxPoint x="219.5" y="870" as="targetPoint" />
            <Array as="points">
              <mxPoint x="250" y="1110" />
              <mxPoint x="250" y="870" />
            </Array>
          </mxGeometry>
        </mxCell>
        <mxCell id="QlOkIQeldyx6gdsehzbM-84" style="edgeStyle=orthogonalEdgeStyle;rounded=0;orthogonalLoop=1;jettySize=auto;html=1;endArrow=block;endFill=0;dashed=1;" parent="WIyWlLk6GJQsqaUBKTNV-1" source="QlOkIQeldyx6gdsehzbM-72" target="QlOkIQeldyx6gdsehzbM-17" edge="1">
          <mxGeometry relative="1" as="geometry">
            <mxPoint x="530" y="1112" as="sourcePoint" />
            <mxPoint x="557" y="872" as="targetPoint" />
            <Array as="points">
              <mxPoint x="590" y="996" />
              <mxPoint x="590" y="870" />
            </Array>
          </mxGeometry>
        </mxCell>
        <mxCell id="QlOkIQeldyx6gdsehzbM-85" style="edgeStyle=orthogonalEdgeStyle;rounded=0;orthogonalLoop=1;jettySize=auto;html=1;endArrow=block;endFill=0;dashed=1;" parent="WIyWlLk6GJQsqaUBKTNV-1" source="QlOkIQeldyx6gdsehzbM-73" target="QlOkIQeldyx6gdsehzbM-17" edge="1">
          <mxGeometry relative="1" as="geometry">
            <mxPoint x="550" y="1020" as="sourcePoint" />
            <mxPoint x="570" y="896" as="targetPoint" />
            <Array as="points">
              <mxPoint x="590" y="1046" />
              <mxPoint x="590" y="870" />
            </Array>
          </mxGeometry>
        </mxCell>
        <mxCell id="QlOkIQeldyx6gdsehzbM-86" style="edgeStyle=orthogonalEdgeStyle;rounded=0;orthogonalLoop=1;jettySize=auto;html=1;endArrow=block;endFill=0;dashed=1;" parent="WIyWlLk6GJQsqaUBKTNV-1" source="QlOkIQeldyx6gdsehzbM-76" target="QlOkIQeldyx6gdsehzbM-19" edge="1">
          <mxGeometry relative="1" as="geometry">
            <mxPoint x="880" y="1056" as="sourcePoint" />
            <mxPoint x="900" y="880" as="targetPoint" />
            <Array as="points">
              <mxPoint x="930" y="1010" />
              <mxPoint x="930" y="870" />
            </Array>
          </mxGeometry>
        </mxCell>
        <mxCell id="QlOkIQeldyx6gdsehzbM-87" style="edgeStyle=orthogonalEdgeStyle;rounded=0;orthogonalLoop=1;jettySize=auto;html=1;endArrow=block;endFill=0;dashed=1;" parent="WIyWlLk6GJQsqaUBKTNV-1" source="QlOkIQeldyx6gdsehzbM-77" target="QlOkIQeldyx6gdsehzbM-19" edge="1">
          <mxGeometry relative="1" as="geometry">
            <mxPoint x="870" y="1010" as="sourcePoint" />
            <mxPoint x="890" y="870" as="targetPoint" />
            <Array as="points">
              <mxPoint x="930" y="1056" />
              <mxPoint x="930" y="870" />
            </Array>
          </mxGeometry>
        </mxCell>
        <mxCell id="QlOkIQeldyx6gdsehzbM-88" style="edgeStyle=orthogonalEdgeStyle;rounded=0;orthogonalLoop=1;jettySize=auto;html=1;endArrow=block;endFill=0;dashed=1;" parent="WIyWlLk6GJQsqaUBKTNV-1" source="QlOkIQeldyx6gdsehzbM-78" target="QlOkIQeldyx6gdsehzbM-19" edge="1">
          <mxGeometry relative="1" as="geometry">
            <mxPoint x="870" y="1056" as="sourcePoint" />
            <mxPoint x="890" y="870" as="targetPoint" />
            <Array as="points">
              <mxPoint x="930" y="1106" />
              <mxPoint x="930" y="870" />
            </Array>
          </mxGeometry>
        </mxCell>
        <mxCell id="GKwYQtxnHV8pZm3PlArQ-5" value="IStrategy" style="swimlane;fontStyle=1;align=center;verticalAlign=top;childLayout=stackLayout;horizontal=1;startSize=26;horizontalStack=0;resizeParent=1;resizeParentMax=0;resizeLast=0;collapsible=1;marginBottom=0;whiteSpace=wrap;html=1;" parent="WIyWlLk6GJQsqaUBKTNV-1" vertex="1">
          <mxGeometry x="1240" y="560" width="160" height="60" as="geometry" />
        </mxCell>
        <mxCell id="GKwYQtxnHV8pZm3PlArQ-7" value="" style="line;strokeWidth=1;fillColor=none;align=left;verticalAlign=middle;spacingTop=-1;spacingLeft=3;spacingRight=3;rotatable=0;labelPosition=right;points=[];portConstraint=eastwest;strokeColor=inherit;" parent="GKwYQtxnHV8pZm3PlArQ-5" vertex="1">
          <mxGeometry y="26" width="160" height="8" as="geometry" />
        </mxCell>
        <mxCell id="GKwYQtxnHV8pZm3PlArQ-8" value="+ Execute() : void" style="text;strokeColor=none;fillColor=none;align=left;verticalAlign=top;spacingLeft=4;spacingRight=4;overflow=hidden;rotatable=0;points=[[0,0.5],[1,0.5]];portConstraint=eastwest;whiteSpace=wrap;html=1;" parent="GKwYQtxnHV8pZm3PlArQ-5" vertex="1">
          <mxGeometry y="34" width="160" height="26" as="geometry" />
        </mxCell>
        <mxCell id="GKwYQtxnHV8pZm3PlArQ-9" value="ConcretStrategy1" style="swimlane;fontStyle=1;align=center;verticalAlign=top;childLayout=stackLayout;horizontal=1;startSize=26;horizontalStack=0;resizeParent=1;resizeParentMax=0;resizeLast=0;collapsible=1;marginBottom=0;whiteSpace=wrap;html=1;" parent="WIyWlLk6GJQsqaUBKTNV-1" vertex="1">
          <mxGeometry x="1090" y="726" width="160" height="60" as="geometry" />
        </mxCell>
        <mxCell id="GKwYQtxnHV8pZm3PlArQ-11" value="" style="line;strokeWidth=1;fillColor=none;align=left;verticalAlign=middle;spacingTop=-1;spacingLeft=3;spacingRight=3;rotatable=0;labelPosition=right;points=[];portConstraint=eastwest;strokeColor=inherit;" parent="GKwYQtxnHV8pZm3PlArQ-9" vertex="1">
          <mxGeometry y="26" width="160" height="8" as="geometry" />
        </mxCell>
        <mxCell id="GKwYQtxnHV8pZm3PlArQ-12" value="+ Execute() : void" style="text;strokeColor=none;fillColor=none;align=left;verticalAlign=top;spacingLeft=4;spacingRight=4;overflow=hidden;rotatable=0;points=[[0,0.5],[1,0.5]];portConstraint=eastwest;whiteSpace=wrap;html=1;" parent="GKwYQtxnHV8pZm3PlArQ-9" vertex="1">
          <mxGeometry y="34" width="160" height="26" as="geometry" />
        </mxCell>
        <mxCell id="GKwYQtxnHV8pZm3PlArQ-13" value="ConcretStrategy2" style="swimlane;fontStyle=1;align=center;verticalAlign=top;childLayout=stackLayout;horizontal=1;startSize=26;horizontalStack=0;resizeParent=1;resizeParentMax=0;resizeLast=0;collapsible=1;marginBottom=0;whiteSpace=wrap;html=1;" parent="WIyWlLk6GJQsqaUBKTNV-1" vertex="1">
          <mxGeometry x="1380" y="730" width="160" height="60" as="geometry" />
        </mxCell>
        <mxCell id="GKwYQtxnHV8pZm3PlArQ-15" value="" style="line;strokeWidth=1;fillColor=none;align=left;verticalAlign=middle;spacingTop=-1;spacingLeft=3;spacingRight=3;rotatable=0;labelPosition=right;points=[];portConstraint=eastwest;strokeColor=inherit;" parent="GKwYQtxnHV8pZm3PlArQ-13" vertex="1">
          <mxGeometry y="26" width="160" height="8" as="geometry" />
        </mxCell>
        <mxCell id="GKwYQtxnHV8pZm3PlArQ-16" value="+ Execute() : void" style="text;strokeColor=none;fillColor=none;align=left;verticalAlign=top;spacingLeft=4;spacingRight=4;overflow=hidden;rotatable=0;points=[[0,0.5],[1,0.5]];portConstraint=eastwest;whiteSpace=wrap;html=1;" parent="GKwYQtxnHV8pZm3PlArQ-13" vertex="1">
          <mxGeometry y="34" width="160" height="26" as="geometry" />
        </mxCell>
        <mxCell id="GKwYQtxnHV8pZm3PlArQ-18" value="" style="endArrow=block;dashed=1;endFill=0;endSize=12;html=1;rounded=0;" parent="WIyWlLk6GJQsqaUBKTNV-1" source="GKwYQtxnHV8pZm3PlArQ-9" target="GKwYQtxnHV8pZm3PlArQ-5" edge="1">
          <mxGeometry width="160" relative="1" as="geometry">
            <mxPoint x="1240" y="720" as="sourcePoint" />
            <mxPoint x="1400" y="720" as="targetPoint" />
          </mxGeometry>
        </mxCell>
        <mxCell id="GKwYQtxnHV8pZm3PlArQ-19" value="" style="endArrow=block;dashed=1;endFill=0;endSize=12;html=1;rounded=0;" parent="WIyWlLk6GJQsqaUBKTNV-1" source="GKwYQtxnHV8pZm3PlArQ-13" target="GKwYQtxnHV8pZm3PlArQ-5" edge="1">
          <mxGeometry width="160" relative="1" as="geometry">
            <mxPoint x="1240" y="720" as="sourcePoint" />
            <mxPoint x="1400" y="720" as="targetPoint" />
          </mxGeometry>
        </mxCell>
        <mxCell id="GKwYQtxnHV8pZm3PlArQ-20" value="Context" style="swimlane;fontStyle=1;align=center;verticalAlign=top;childLayout=stackLayout;horizontal=1;startSize=26;horizontalStack=0;resizeParent=1;resizeParentMax=0;resizeLast=0;collapsible=1;marginBottom=0;whiteSpace=wrap;html=1;" parent="WIyWlLk6GJQsqaUBKTNV-1" vertex="1">
          <mxGeometry x="960" y="480" width="160" height="86" as="geometry" />
        </mxCell>
        <mxCell id="GKwYQtxnHV8pZm3PlArQ-21" value="- strategy : IStrategy" style="text;strokeColor=none;fillColor=none;align=left;verticalAlign=top;spacingLeft=4;spacingRight=4;overflow=hidden;rotatable=0;points=[[0,0.5],[1,0.5]];portConstraint=eastwest;whiteSpace=wrap;html=1;" parent="GKwYQtxnHV8pZm3PlArQ-20" vertex="1">
          <mxGeometry y="26" width="160" height="26" as="geometry" />
        </mxCell>
        <mxCell id="GKwYQtxnHV8pZm3PlArQ-22" value="" style="line;strokeWidth=1;fillColor=none;align=left;verticalAlign=middle;spacingTop=-1;spacingLeft=3;spacingRight=3;rotatable=0;labelPosition=right;points=[];portConstraint=eastwest;strokeColor=inherit;" parent="GKwYQtxnHV8pZm3PlArQ-20" vertex="1">
          <mxGeometry y="52" width="160" height="8" as="geometry" />
        </mxCell>
        <mxCell id="GKwYQtxnHV8pZm3PlArQ-25" value="+ ContextMethod() : void" style="text;strokeColor=none;fillColor=none;align=left;verticalAlign=top;spacingLeft=4;spacingRight=4;overflow=hidden;rotatable=0;points=[[0,0.5],[1,0.5]];portConstraint=eastwest;whiteSpace=wrap;html=1;" parent="GKwYQtxnHV8pZm3PlArQ-20" vertex="1">
          <mxGeometry y="60" width="160" height="26" as="geometry" />
        </mxCell>
        <mxCell id="GKwYQtxnHV8pZm3PlArQ-24" value="" style="endArrow=diamondThin;endFill=0;endSize=24;html=1;rounded=0;" parent="WIyWlLk6GJQsqaUBKTNV-1" source="GKwYQtxnHV8pZm3PlArQ-5" target="GKwYQtxnHV8pZm3PlArQ-20" edge="1">
          <mxGeometry width="160" relative="1" as="geometry">
            <mxPoint x="1100" y="510" as="sourcePoint" />
            <mxPoint x="1260" y="510" as="targetPoint" />
          </mxGeometry>
        </mxCell>
        <mxCell id="GKwYQtxnHV8pZm3PlArQ-26" value="" style="endArrow=diamondThin;endFill=1;endSize=24;html=1;rounded=0;" parent="WIyWlLk6GJQsqaUBKTNV-1" source="QlOkIQeldyx6gdsehzbM-68" target="QlOkIQeldyx6gdsehzbM-46" edge="1">
          <mxGeometry width="160" relative="1" as="geometry">
            <mxPoint x="330" y="770" as="sourcePoint" />
            <mxPoint x="10" y="430" as="targetPoint" />
            <Array as="points">
              <mxPoint x="-30" y="1006" />
              <mxPoint x="-30" y="274" />
            </Array>
          </mxGeometry>
        </mxCell>
        <mxCell id="GKwYQtxnHV8pZm3PlArQ-27" style="edgeStyle=orthogonalEdgeStyle;rounded=0;orthogonalLoop=1;jettySize=auto;html=1;" parent="WIyWlLk6GJQsqaUBKTNV-1" source="3LsAdrbxMUr_38dIZ2-f-0" target="3LsAdrbxMUr_38dIZ2-f-0" edge="1">
          <mxGeometry relative="1" as="geometry" />
        </mxCell>
        <mxCell id="GKwYQtxnHV8pZm3PlArQ-29" value="" style="endArrow=diamondThin;endFill=1;endSize=24;html=1;rounded=0;" parent="WIyWlLk6GJQsqaUBKTNV-1" source="QlOkIQeldyx6gdsehzbM-73" target="QlOkIQeldyx6gdsehzbM-46" edge="1">
          <mxGeometry width="160" relative="1" as="geometry">
            <mxPoint x="350" y="1040" as="sourcePoint" />
            <mxPoint x="85" y="280" as="targetPoint" />
            <Array as="points">
              <mxPoint x="320" y="1046" />
              <mxPoint x="320" y="600" />
              <mxPoint x="-30" y="600" />
              <mxPoint x="-30" y="274" />
            </Array>
          </mxGeometry>
        </mxCell>
        <mxCell id="GKwYQtxnHV8pZm3PlArQ-30" value="" style="endArrow=diamondThin;endFill=1;endSize=24;html=1;rounded=0;entryX=0;entryY=0.5;entryDx=0;entryDy=0;" parent="WIyWlLk6GJQsqaUBKTNV-1" source="QlOkIQeldyx6gdsehzbM-76" target="QlOkIQeldyx6gdsehzbM-46" edge="1">
          <mxGeometry width="160" relative="1" as="geometry">
            <mxPoint x="400" y="1040" as="sourcePoint" />
            <mxPoint x="90" y="268" as="targetPoint" />
            <Array as="points">
              <mxPoint x="680" y="1006" />
              <mxPoint x="680" y="600" />
              <mxPoint x="-30" y="600" />
              <mxPoint x="-30" y="274" />
            </Array>
          </mxGeometry>
        </mxCell>
        <mxCell id="GKwYQtxnHV8pZm3PlArQ-33" value="" style="endArrow=diamondThin;endFill=1;endSize=24;html=1;rounded=0;exitX=0.03;exitY=0.491;exitDx=0;exitDy=0;exitPerimeter=0;" parent="WIyWlLk6GJQsqaUBKTNV-1" source="QlOkIQeldyx6gdsehzbM-68" target="QlOkIQeldyx6gdsehzbM-47" edge="1">
          <mxGeometry width="160" relative="1" as="geometry">
            <mxPoint x="68" y="1002" as="sourcePoint" />
            <mxPoint x="270" y="270" as="targetPoint" />
            <Array as="points">
              <mxPoint x="-20" y="1006" />
              <mxPoint x="-20" y="320" />
              <mxPoint x="240" y="320" />
              <mxPoint x="240" y="270" />
            </Array>
          </mxGeometry>
        </mxCell>
        <mxCell id="GKwYQtxnHV8pZm3PlArQ-35" value="" style="endArrow=diamondThin;endFill=1;endSize=24;html=1;rounded=0;" parent="WIyWlLk6GJQsqaUBKTNV-1" source="QlOkIQeldyx6gdsehzbM-73" target="QlOkIQeldyx6gdsehzbM-47" edge="1">
          <mxGeometry width="160" relative="1" as="geometry">
            <mxPoint x="78" y="1012" as="sourcePoint" />
            <mxPoint x="280" y="281" as="targetPoint" />
            <Array as="points">
              <mxPoint x="330" y="1046" />
              <mxPoint x="330" y="610" />
              <mxPoint x="-20" y="610" />
              <mxPoint x="-20" y="320" />
              <mxPoint x="240" y="320" />
              <mxPoint x="240" y="270" />
            </Array>
          </mxGeometry>
        </mxCell>
        <mxCell id="GKwYQtxnHV8pZm3PlArQ-36" value="" style="endArrow=diamondThin;endFill=1;endSize=24;html=1;rounded=0;" parent="WIyWlLk6GJQsqaUBKTNV-1" source="QlOkIQeldyx6gdsehzbM-77" edge="1">
          <mxGeometry width="160" relative="1" as="geometry">
            <mxPoint x="415" y="1048" as="sourcePoint" />
            <mxPoint x="270" y="271" as="targetPoint" />
            <Array as="points">
              <mxPoint x="670" y="1056" />
              <mxPoint x="670" y="610" />
              <mxPoint x="-20" y="610" />
              <mxPoint x="-20" y="320" />
              <mxPoint x="240" y="320" />
              <mxPoint x="240" y="270" />
            </Array>
          </mxGeometry>
        </mxCell>
        <mxCell id="GKwYQtxnHV8pZm3PlArQ-37" value="" style="endArrow=diamondThin;endFill=1;endSize=24;html=1;rounded=0;" parent="WIyWlLk6GJQsqaUBKTNV-1" source="QlOkIQeldyx6gdsehzbM-78" target="QlOkIQeldyx6gdsehzbM-48" edge="1">
          <mxGeometry width="160" relative="1" as="geometry">
            <mxPoint x="745" y="1102" as="sourcePoint" />
            <mxPoint x="105" y="370" as="targetPoint" />
            <Array as="points">
              <mxPoint x="660" y="1106" />
              <mxPoint x="660" y="620" />
              <mxPoint x="-10" y="620" />
              <mxPoint x="-10" y="370" />
            </Array>
          </mxGeometry>
        </mxCell>
        <mxCell id="GKwYQtxnHV8pZm3PlArQ-38" value="" style="endArrow=diamondThin;endFill=1;endSize=24;html=1;rounded=0;" parent="WIyWlLk6GJQsqaUBKTNV-1" source="QlOkIQeldyx6gdsehzbM-69" target="QlOkIQeldyx6gdsehzbM-48" edge="1">
          <mxGeometry width="160" relative="1" as="geometry">
            <mxPoint x="290" y="1040" as="sourcePoint" />
            <mxPoint x="105" y="371" as="targetPoint" />
            <Array as="points">
              <mxPoint x="-10" y="1056" />
              <mxPoint x="-10" y="370" />
            </Array>
          </mxGeometry>
        </mxCell>
        <mxCell id="GKwYQtxnHV8pZm3PlArQ-39" value="" style="endArrow=diamondThin;endFill=1;endSize=24;html=1;rounded=0;" parent="WIyWlLk6GJQsqaUBKTNV-1" source="QlOkIQeldyx6gdsehzbM-72" target="QlOkIQeldyx6gdsehzbM-48" edge="1">
          <mxGeometry width="160" relative="1" as="geometry">
            <mxPoint x="745" y="1106" as="sourcePoint" />
            <mxPoint x="105" y="371" as="targetPoint" />
            <Array as="points">
              <mxPoint x="340" y="996" />
              <mxPoint x="340" y="620" />
              <mxPoint x="-10" y="620" />
              <mxPoint x="-10" y="370" />
            </Array>
          </mxGeometry>
        </mxCell>
        <mxCell id="NKRjvTlO_0NrSza_AgDe-0" value="" style="endArrow=diamondThin;endFill=0;endSize=24;html=1;rounded=0;" parent="WIyWlLk6GJQsqaUBKTNV-1" source="QlOkIQeldyx6gdsehzbM-15" target="QlOkIQeldyx6gdsehzbM-10" edge="1">
          <mxGeometry width="160" relative="1" as="geometry">
            <mxPoint x="410" y="640" as="sourcePoint" />
            <mxPoint x="570" y="640" as="targetPoint" />
            <Array as="points">
              <mxPoint x="140" y="760" />
              <mxPoint x="620" y="760" />
            </Array>
          </mxGeometry>
        </mxCell>
        <mxCell id="NKRjvTlO_0NrSza_AgDe-1" value="" style="endArrow=diamondThin;endFill=0;endSize=24;html=1;rounded=0;" parent="WIyWlLk6GJQsqaUBKTNV-1" source="QlOkIQeldyx6gdsehzbM-17" target="QlOkIQeldyx6gdsehzbM-10" edge="1">
          <mxGeometry width="160" relative="1" as="geometry">
            <mxPoint x="140" y="840" as="sourcePoint" />
            <mxPoint x="617" y="550" as="targetPoint" />
            <Array as="points">
              <mxPoint x="480" y="760" />
              <mxPoint x="620" y="760" />
            </Array>
          </mxGeometry>
        </mxCell>
        <mxCell id="NKRjvTlO_0NrSza_AgDe-2" value="" style="endArrow=diamondThin;endFill=0;endSize=24;html=1;rounded=0;" parent="WIyWlLk6GJQsqaUBKTNV-1" source="QlOkIQeldyx6gdsehzbM-19" target="QlOkIQeldyx6gdsehzbM-10" edge="1">
          <mxGeometry width="160" relative="1" as="geometry">
            <mxPoint x="490" y="850" as="sourcePoint" />
            <mxPoint x="627" y="560" as="targetPoint" />
            <Array as="points">
              <mxPoint x="810" y="760" />
              <mxPoint x="620" y="760" />
            </Array>
          </mxGeometry>
        </mxCell>
        <mxCell id="NKRjvTlO_0NrSza_AgDe-3" value="" style="endArrow=diamondThin;endFill=1;endSize=24;html=1;rounded=0;exitX=0;exitY=0.5;exitDx=0;exitDy=0;" parent="WIyWlLk6GJQsqaUBKTNV-1" source="QlOkIQeldyx6gdsehzbM-70" target="QlOkIQeldyx6gdsehzbM-50" edge="1">
          <mxGeometry width="160" relative="1" as="geometry">
            <mxPoint x="565" y="1006" as="sourcePoint" />
            <mxPoint x="255" y="381" as="targetPoint" />
            <Array as="points">
              <mxPoint y="1106" />
              <mxPoint y="400" />
              <mxPoint x="230" y="400" />
              <mxPoint x="230" y="370" />
            </Array>
          </mxGeometry>
        </mxCell>
        <mxCell id="NKRjvTlO_0NrSza_AgDe-4" value="" style="endArrow=diamondThin;endFill=1;endSize=24;html=1;rounded=0;" parent="WIyWlLk6GJQsqaUBKTNV-1" source="QlOkIQeldyx6gdsehzbM-72" target="QlOkIQeldyx6gdsehzbM-50" edge="1">
          <mxGeometry width="160" relative="1" as="geometry">
            <mxPoint x="360" y="1080" as="sourcePoint" />
            <mxPoint x="270" y="371" as="targetPoint" />
            <Array as="points">
              <mxPoint x="350" y="996" />
              <mxPoint x="350" y="630" />
              <mxPoint y="630" />
              <mxPoint y="400" />
              <mxPoint x="230" y="400" />
              <mxPoint x="230" y="370" />
            </Array>
          </mxGeometry>
        </mxCell>
        <mxCell id="NKRjvTlO_0NrSza_AgDe-5" value="" style="endArrow=diamondThin;endFill=1;endSize=24;html=1;rounded=0;" parent="WIyWlLk6GJQsqaUBKTNV-1" source="QlOkIQeldyx6gdsehzbM-78" target="QlOkIQeldyx6gdsehzbM-50" edge="1">
          <mxGeometry width="160" relative="1" as="geometry">
            <mxPoint x="415" y="1046" as="sourcePoint" />
            <mxPoint x="270" y="371" as="targetPoint" />
            <Array as="points">
              <mxPoint x="650" y="1106" />
              <mxPoint x="650" y="630" />
              <mxPoint y="630" />
              <mxPoint y="400" />
              <mxPoint x="230" y="400" />
              <mxPoint x="230" y="370" />
            </Array>
          </mxGeometry>
        </mxCell>
        <mxCell id="NKRjvTlO_0NrSza_AgDe-6" value="" style="endArrow=diamondThin;endFill=1;endSize=24;html=1;rounded=0;" parent="WIyWlLk6GJQsqaUBKTNV-1" source="QlOkIQeldyx6gdsehzbM-70" target="QlOkIQeldyx6gdsehzbM-49" edge="1">
          <mxGeometry width="160" relative="1" as="geometry">
            <mxPoint x="-122" y="1226" as="sourcePoint" />
            <mxPoint x="80" y="491" as="targetPoint" />
            <Array as="points">
              <mxPoint x="10" y="1106" />
              <mxPoint x="10" y="500" />
              <mxPoint x="160" y="500" />
            </Array>
          </mxGeometry>
        </mxCell>
        <mxCell id="NKRjvTlO_0NrSza_AgDe-7" value="" style="endArrow=diamondThin;endFill=1;endSize=24;html=1;rounded=0;" parent="WIyWlLk6GJQsqaUBKTNV-1" source="QlOkIQeldyx6gdsehzbM-72" target="QlOkIQeldyx6gdsehzbM-49" edge="1">
          <mxGeometry width="160" relative="1" as="geometry">
            <mxPoint x="68" y="1106" as="sourcePoint" />
            <mxPoint x="160" y="462" as="targetPoint" />
            <Array as="points">
              <mxPoint x="360" y="996" />
              <mxPoint x="360" y="640" />
              <mxPoint x="10" y="640" />
              <mxPoint x="10" y="500" />
              <mxPoint x="160" y="500" />
            </Array>
          </mxGeometry>
        </mxCell>
        <mxCell id="NKRjvTlO_0NrSza_AgDe-8" value="" style="endArrow=diamondThin;endFill=1;endSize=24;html=1;rounded=0;" parent="WIyWlLk6GJQsqaUBKTNV-1" source="QlOkIQeldyx6gdsehzbM-78" target="QlOkIQeldyx6gdsehzbM-49" edge="1">
          <mxGeometry width="160" relative="1" as="geometry">
            <mxPoint x="415" y="996" as="sourcePoint" />
            <mxPoint x="160" y="462" as="targetPoint" />
            <Array as="points">
              <mxPoint x="640" y="1106" />
              <mxPoint x="640" y="640" />
              <mxPoint x="10" y="640" />
              <mxPoint x="10" y="500" />
              <mxPoint x="160" y="500" />
            </Array>
          </mxGeometry>
        </mxCell>
      </root>
    </mxGraphModel>
  </diagram>
</mxfile>
